<svg xmlns="http://www.w3.org/2000/svg" viewBox="0 0 64 64"><rect width="64" height="64" rx="14" fill="#191815"/><g transform="translate(7.77,44.66) scale(0.01868,-0.01868)"><path fill="#f4efe4" d="M429.3931884765625 1422.800048828125V107.0020751953125L313.7965087890625 9.3995361328125Q263.5985107421875 -10 242.19921875 -16.7999267578125Q220.7999267578125 -23.599853515625 199.8004150390625 -23.599853515625Q177.2010498046875 -23.599853515625 162.90142822265625 -10.3001708984375Q148.601806640625 2.99951171875 148.601806640625 29.7989501953125V1254.4033203125Q148.601806640625 1280.4029541015625 140.70184326171875 1291.2028198242188Q132.8018798828125 1302.002685546875 115.40185546875 1305.0025634765625L63 1309.6024169921875Q44.400146484375 1313.80224609375 36.80023193359375 1322.5020141601562Q29.2003173828125 1331.2017822265625 29.2003173828125 1346.00146484375Q29.2003173828125 1361.801025390625 38.70013427734375 1372.2008056640625Q48.199951171875 1382.6005859375 74.7994384765625 1392.0003662109375L260.7969970703125 1460.19921875Q300.1961669921875 1474.598876953125 323.29571533203125 1480.69873046875Q346.395263671875 1486.798583984375 362.994873046875 1486.798583984375Q396.39404296875 1486.798583984375 412.89361572265625 1469.1990356445312Q429.3931884765625 1451.5994873046875 429.3931884765625 1422.800048828125ZM372.794189453125 651.4013671875 327.595703125 709.2008056640625Q406.995361328125 831.9998779296875 510.1951904296875 901.1992797851562Q613.39501953125 970.398681640625 739.1943359375 970.398681640625Q857.394287109375 970.398681640625 950.09423828125 909.7987060546875Q1042.794189453125 849.19873046875 1096.494140625 742.998779296875Q1150.194091796875 636.798828125 1150.194091796875 498.198974609375Q1150.194091796875 338.399169921875 1086.6942749023438 221.199462890625Q1023.1944580078125 103.999755859375 914.494873046875 39.5999755859375Q805.7952880859375 -24.7998046875 670.1959228515625 -24.7998046875Q551.39599609375 -24.7998046875 459.495849609375 31.20050048828125Q367.595703125 87.2008056640625 307.7960205078125 193.6009521484375L376.3936767578125 250.800048828125Q425.3939208984375 169.3990478515625 486.6951904296875 128.89825439453125Q547.9964599609375 88.3974609375 619.1978759765625 88.3974609375Q687.7991943359375 88.3974609375 741.7003173828125 128.7978515625Q795.6014404296875 169.1982421875 826.5021362304688 253.498779296875Q857.40283203125 337.79931640625 857.40283203125 467.5997314453125Q857.40283203125 590.2003173828125 827.1022338867188 670.0009765625Q796.8016357421875 749.8016357421875 744.4005737304688 789.402099609375Q691.99951171875 829.0025634765625 625.398193359375 829.0025634765625Q552.797119140625 829.0025634765625 489.196044921875 785.3021850585938Q425.594970703125 741.601806640625 372.794189453125 651.4013671875Z"/><path fill="#f4efe4" transform="translate(1200,0)" d="M435.7940673828125 529.5989990234375Q435.7940673828125 674.798583984375 477.19415283203125 772.99853515625Q518.59423828125 871.198486328125 584.9942626953125 920.798583984375Q651.394287109375 970.398681640625 728.3941650390625 970.398681640625Q824.3935546875 970.398681640625 876.393310546875 915.8992309570312Q928.39306640625 861.3997802734375 928.39306640625 760.8013916015625Q928.39306640625 671.6038818359375 891.2940063476562 627.2049560546875Q854.1949462890625 582.8060302734375 794.9964599609375 582.8060302734375Q735.197998046875 582.8060302734375 703.9986572265625 614.9053344726562Q672.79931640625 647.004638671875 672.79931640625 704.00341796875V740.8031005859375Q672.1993408203125 771.00341796875 658.09912109375 787.0035400390625Q643.9989013671875 803.003662109375 612.3983154296875 803.003662109375Q577.1973876953125 803.003662109375 544.6963500976562 773.802978515625Q512.1953125 744.602294921875 491.79461669921875 685.7011108398438Q471.3939208984375 626.7999267578125 471.3939208984375 534.598388671875ZM455.194580078125 901.599853515625 471.3939208984375 673.9989013671875V159.9971923828125Q471.3939208984375 132.3975830078125 482.593994140625 118.6976318359375Q493.7940673828125 104.9976806640625 523.59375 99.997802734375L609.7943115234375 86.597900390625Q632.7939453125 82.5980224609375 644.393798828125 72.0982666015625Q655.99365234375 61.5985107421875 655.99365234375 42.39892578125Q655.99365234375 22.199462890625 641.9939575195312 11.0997314453125Q627.9942626953125 0 599.5948486328125 0H133.60009765625Q104.80078125 0 91.7010498046875 11.0997314453125Q78.601318359375 22.199462890625 78.601318359375 41.7989501953125Q78.601318359375 55.9986572265625 87.60125732421875 66.9984130859375Q96.6011962890625 77.9981689453125 115.0009765625 83.7979736328125L154.802001953125 94.197998046875Q173.002197265625 99.9979248046875 181.8023681640625 114.497802734375Q190.6025390625 128.9976806640625 190.6025390625 159.9971923828125V731.4031982421875Q190.6025390625 756.40283203125 182.70257568359375 767.7026977539062Q174.8026123046875 779.0025634765625 157.402587890625 782.00244140625L105.000732421875 785.602294921875Q86.40087890625 789.8021240234375 78.30096435546875 799.0018920898438Q70.2010498046875 808.20166015625 70.2010498046875 822.0013427734375Q70.2010498046875 838.8009033203125 80.70086669921875 849.0006713867188Q91.20068359375 859.200439453125 116.8001708984375 869.000244140625L298.597900390625 935.399169921875Q348.1966552734375 953.5986328125 370.79620361328125 959.3984985351562Q393.395751953125 965.1983642578125 406.7955322265625 965.1983642578125Q429.1951904296875 965.1983642578125 440.094970703125 950.7987060546875Q450.9947509765625 936.3990478515625 455.194580078125 901.599853515625Z"/><path fill="#4d5dff" transform="translate(2117,0)" d="M269.8364673155472 -21.99951171875Q220.59765625 -21.99951171875 180.49847412109375 3.0999755859375Q140.3992919921875 28.199462890625 116.69976806640625 69.798583984375Q93.000244140625 111.397705078125 93.000244140625 159.1768677689647Q93.000244140625 209.1956787109375 116.69976806640625 250.29486083984375Q140.3992919921875 291.39404296875 180.49847412109375 315.29351806640625Q220.59765625 339.1929931640625 269.8364673155472 339.1929931640625Q320.56736356489887 339.1929931640625 360.4806422316682 315.29351806640625Q400.3939208984375 291.39404296875 423.8934326171875 250.29486083984375Q447.3929443359375 209.1956787109375 447.3929443359375 159.1768677689647Q447.3929443359375 111.397705078125 423.8934326171875 69.798583984375Q400.3939208984375 28.199462890625 360.4806422316682 3.0999755859375Q320.56736356489887 -21.99951171875 269.8364673155472 -21.99951171875Z"/></g></svg>